<svg display="none" xmlns="http://www.w3.org/2000/svg">
    <symbol viewBox="0 0 79.5652 23.04" fill="none" id='logo-icon'>
	    <path d="M28.41 0L23.91 0L23.91 22.67L28.41 22.67L28.41 0ZM31.34 3.51C31.34 2.79 31.59 2.17 32.09 1.67C32.61 1.15 33.23 0.89 33.95 0.89C34.67 0.89 35.28 1.15 35.78 1.67C36.3 2.17 36.56 2.79 36.56 3.51C36.56 4.22 36.3 4.85 35.78 5.37C35.28 5.87 34.67 6.12 33.95 6.12C33.23 6.12 32.61 5.87 32.09 5.37C31.59 4.85 31.34 4.22 31.34 3.51ZM55.81 3.51Q55.81 2.93 56.02 2.45Q56.21 2.03 56.56 1.67C57.08 1.15 57.7 0.89 58.42 0.89C59.14 0.89 59.75 1.15 60.25 1.67C60.77 2.17 61.03 2.79 61.03 3.51C61.03 4.22 60.77 4.85 60.25 5.37C59.75 5.87 59.14 6.12 58.42 6.12C57.7 6.12 57.08 5.87 56.56 5.37Q56.18 4.97 55.99 4.5Q55.81 4.04 55.81 3.51ZM9.17 1.43L13.05 1.43L22.29 22.67L17.01 22.67L15.18 18.17L6.92 18.17L5.15 22.67L0 22.67L9.17 1.43ZM10.98 7.62L8.4 14.22L13.59 14.22L10.98 7.62ZM63.99 12.24C63.57 13.17 63.36 14.23 63.36 15.38C63.36 16.54 63.57 17.6 63.99 18.54Q64.46 19.59 65.19 20.43Q65.43 20.71 65.7 20.97C66.44 21.62 67.3 22.13 68.28 22.5C69.28 22.86 70.34 23.04 71.46 23.04C72.58 23.04 73.63 22.86 74.61 22.5C75.61 22.13 76.47 21.62 77.19 20.97C77.93 20.29 78.51 19.48 78.93 18.54Q79.56 17.12 79.56 15.38Q79.56 13.64 78.93 12.24C78.51 11.3 77.93 10.5 77.19 9.84C76.47 9.15 75.61 8.63 74.61 8.28C73.63 7.91 72.58 7.73 71.46 7.73C70.34 7.73 69.28 7.91 68.28 8.28Q67.18 8.68 66.28 9.36Q65.98 9.58 65.7 9.84C64.98 10.5 64.41 11.3 63.99 12.24ZM31.7 8.1L36.2 8.1L36.2 22.67L31.7 22.67L31.7 8.1ZM42.77 8.1L37.91 8.1L43.94 22.67L48.71 22.67L54.47 8.1L49.94 8.1L46.52 18L46.46 18L42.77 8.1ZM56.17 8.1L60.67 8.1L60.67 22.67L56.17 22.67L56.17 8.1ZM68.79 18.06C68.17 17.37 67.86 16.49 67.86 15.38C67.86 14.29 68.17 13.39 68.79 12.72Q68.98 12.51 69.2 12.35Q70.09 11.7 71.46 11.7C72.6 11.7 73.48 12.04 74.1 12.72Q74.3 12.93 74.46 13.17Q75.06 14.08 75.06 15.38Q75.06 16.69 74.46 17.6Q74.3 17.84 74.1 18.06C73.48 18.74 72.6 19.08 71.46 19.08Q70.09 19.08 69.2 18.42Q68.98 18.26 68.79 18.06Z"/>
    </symbol>

    <symbol width="71.031281" height="72.017822" viewBox="0 0 71.0313 72.0178" fill="none" id="play-icon">
	    <path d="M35.51 0C15.93 0 0 16.15 0 36C0 55.86 15.93 72.01 35.51 72.01C55.1 72.01 71.03 55.86 71.03 36C71.03 16.15 55.1 0 35.51 0ZM35.51 69.01C17.56 69.01 2.95 54.2 2.95 36C2.95 17.8 17.56 3 35.51 3C53.46 3 68.07 17.8 68.07 36C68.07 54.2 53.46 69.01 35.51 69.01Z"/>
	    <path d="M49.63 34.74L28.91 21.24C28.46 20.94 27.87 20.92 27.4 21.18C26.93 21.45 26.63 21.95 26.63 22.5L26.63 49.51C26.63 50.06 26.93 50.56 27.4 50.82C27.62 50.95 27.87 51.01 28.11 51.01C28.39 51.01 28.67 50.93 28.91 50.77L49.63 37.27C50.05 36.99 50.31 36.51 50.31 36C50.31 35.49 50.05 35.02 49.63 34.74ZM29.59 46.76L29.59 25.25L46.09 36L29.59 46.76Z"/>
    </symbol>
</svg>

